ISO-10303-21;
HEADER;
/* Generated by software containing ST-Developer
 * from STEP Tools, Inc. (www.steptools.com) 
 */

FILE_DESCRIPTION(
/* description */ (''),
/* implementation_level */ '2;1');

FILE_NAME(
/* name */ 'EverestStudiosSpotifyDisplayBack.step',
/* time_stamp */ '2026-05-29T20:54:04-07:00',
/* author */ (''),
/* organization */ (''),
/* preprocessor_version */ 'ST-DEVELOPER v20.1',
/* originating_system */ 'Autodesk Translation Framework v15.8.0.0',
/* authorisation */ '');

FILE_SCHEMA (('AUTOMOTIVE_DESIGN { 1 0 10303 214 3 1 1 }'));
ENDSEC;

DATA;
#10=MECHANICAL_DESIGN_GEOMETRIC_PRESENTATION_REPRESENTATION('',(#13),#663);
#11=SHAPE_REPRESENTATION_RELATIONSHIP('SRR','None',#670,#12);
#12=ADVANCED_BREP_SHAPE_REPRESENTATION('',(#14),#662);
#13=STYLED_ITEM('',(#679),#14);
#14=MANIFOLD_SOLID_BREP('Body1',#407);
#15=FACE_BOUND('',#65,.T.);
#16=FACE_BOUND('',#66,.T.);
#17=FACE_BOUND('',#68,.T.);
#18=CIRCLE('',#436,4.99999999999999);
#19=CIRCLE('',#437,4.99999999999999);
#20=CIRCLE('',#442,5.);
#21=CIRCLE('',#443,5.);
#22=CYLINDRICAL_SURFACE('',#435,4.99999999999999);
#23=CYLINDRICAL_SURFACE('',#441,5.);
#24=FACE_OUTER_BOUND('',#45,.T.);
#25=FACE_OUTER_BOUND('',#46,.T.);
#26=FACE_OUTER_BOUND('',#47,.T.);
#27=FACE_OUTER_BOUND('',#48,.T.);
#28=FACE_OUTER_BOUND('',#49,.T.);
#29=FACE_OUTER_BOUND('',#50,.T.);
#30=FACE_OUTER_BOUND('',#51,.T.);
#31=FACE_OUTER_BOUND('',#52,.T.);
#32=FACE_OUTER_BOUND('',#53,.T.);
#33=FACE_OUTER_BOUND('',#54,.T.);
#34=FACE_OUTER_BOUND('',#55,.T.);
#35=FACE_OUTER_BOUND('',#56,.T.);
#36=FACE_OUTER_BOUND('',#57,.T.);
#37=FACE_OUTER_BOUND('',#58,.T.);
#38=FACE_OUTER_BOUND('',#59,.T.);
#39=FACE_OUTER_BOUND('',#60,.T.);
#40=FACE_OUTER_BOUND('',#61,.T.);
#41=FACE_OUTER_BOUND('',#62,.T.);
#42=FACE_OUTER_BOUND('',#63,.T.);
#43=FACE_OUTER_BOUND('',#64,.T.);
#44=FACE_OUTER_BOUND('',#67,.T.);
#45=EDGE_LOOP('',(#259,#260,#261,#262));
#46=EDGE_LOOP('',(#263,#264,#265,#266));
#47=EDGE_LOOP('',(#267,#268,#269,#270));
#48=EDGE_LOOP('',(#271,#272,#273,#274));
#49=EDGE_LOOP('',(#275,#276,#277,#278));
#50=EDGE_LOOP('',(#279,#280,#281,#282));
#51=EDGE_LOOP('',(#283,#284,#285,#286));
#52=EDGE_LOOP('',(#287,#288,#289,#290));
#53=EDGE_LOOP('',(#291,#292,#293,#294));
#54=EDGE_LOOP('',(#295,#296,#297,#298));
#55=EDGE_LOOP('',(#299,#300,#301,#302));
#56=EDGE_LOOP('',(#303,#304,#305,#306));
#57=EDGE_LOOP('',(#307,#308,#309,#310,#311,#312,#313,#314));
#58=EDGE_LOOP('',(#315,#316,#317,#318));
#59=EDGE_LOOP('',(#319,#320,#321,#322));
#60=EDGE_LOOP('',(#323,#324,#325,#326));
#61=EDGE_LOOP('',(#327,#328,#329,#330));
#62=EDGE_LOOP('',(#331,#332,#333,#334));
#63=EDGE_LOOP('',(#335,#336,#337,#338));
#64=EDGE_LOOP('',(#339,#340,#341,#342,#343,#344));
#65=EDGE_LOOP('',(#345,#346,#347,#348));
#66=EDGE_LOOP('',(#349,#350,#351,#352,#353,#354,#355,#356));
#67=EDGE_LOOP('',(#357,#358,#359,#360,#361,#362));
#68=EDGE_LOOP('',(#363,#364,#365,#366));
#69=LINE('',#552,#119);
#70=LINE('',#554,#120);
#71=LINE('',#556,#121);
#72=LINE('',#557,#122);
#73=LINE('',#560,#123);
#74=LINE('',#562,#124);
#75=LINE('',#563,#125);
#76=LINE('',#566,#126);
#77=LINE('',#568,#127);
#78=LINE('',#569,#128);
#79=LINE('',#571,#129);
#80=LINE('',#572,#130);
#81=LINE('',#576,#131);
#82=LINE('',#578,#132);
#83=LINE('',#580,#133);
#84=LINE('',#581,#134);
#85=LINE('',#585,#135);
#86=LINE('',#587,#136);
#87=LINE('',#589,#137);
#88=LINE('',#590,#138);
#89=LINE('',#593,#139);
#90=LINE('',#595,#140);
#91=LINE('',#596,#141);
#92=LINE('',#599,#142);
#93=LINE('',#601,#143);
#94=LINE('',#602,#144);
#95=LINE('',#605,#145);
#96=LINE('',#607,#146);
#97=LINE('',#608,#147);
#98=LINE('',#611,#148);
#99=LINE('',#613,#149);
#100=LINE('',#614,#150);
#101=LINE('',#616,#151);
#102=LINE('',#617,#152);
#103=LINE('',#619,#153);
#104=LINE('',#620,#154);
#105=LINE('',#625,#155);
#106=LINE('',#627,#156);
#107=LINE('',#629,#157);
#108=LINE('',#630,#158);
#109=LINE('',#636,#159);
#110=LINE('',#639,#160);
#111=LINE('',#641,#161);
#112=LINE('',#642,#162);
#113=LINE('',#645,#163);
#114=LINE('',#647,#164);
#115=LINE('',#648,#165);
#116=LINE('',#651,#166);
#117=LINE('',#653,#167);
#118=LINE('',#654,#168);
#119=VECTOR('',#450,10.);
#120=VECTOR('',#451,10.);
#121=VECTOR('',#452,10.);
#122=VECTOR('',#453,10.);
#123=VECTOR('',#456,10.);
#124=VECTOR('',#457,10.);
#125=VECTOR('',#458,10.);
#126=VECTOR('',#461,10.);
#127=VECTOR('',#462,10.);
#128=VECTOR('',#463,10.);
#129=VECTOR('',#466,10.);
#130=VECTOR('',#467,10.);
#131=VECTOR('',#470,10.);
#132=VECTOR('',#471,10.);
#133=VECTOR('',#472,10.);
#134=VECTOR('',#473,10.);
#135=VECTOR('',#476,10.);
#136=VECTOR('',#477,10.);
#137=VECTOR('',#478,10.);
#138=VECTOR('',#479,10.);
#139=VECTOR('',#482,10.);
#140=VECTOR('',#483,10.);
#141=VECTOR('',#484,10.);
#142=VECTOR('',#487,10.);
#143=VECTOR('',#488,10.);
#144=VECTOR('',#489,10.);
#145=VECTOR('',#492,10.);
#146=VECTOR('',#493,10.);
#147=VECTOR('',#494,10.);
#148=VECTOR('',#497,10.);
#149=VECTOR('',#498,10.);
#150=VECTOR('',#499,10.);
#151=VECTOR('',#502,10.);
#152=VECTOR('',#503,10.);
#153=VECTOR('',#506,10.);
#154=VECTOR('',#507,10.);
#155=VECTOR('',#512,10.);
#156=VECTOR('',#513,10.);
#157=VECTOR('',#514,10.);
#158=VECTOR('',#515,10.);
#159=VECTOR('',#522,10.);
#160=VECTOR('',#525,10.);
#161=VECTOR('',#526,10.);
#162=VECTOR('',#527,10.);
#163=VECTOR('',#530,10.);
#164=VECTOR('',#531,10.);
#165=VECTOR('',#532,10.);
#166=VECTOR('',#535,10.);
#167=VECTOR('',#536,10.);
#168=VECTOR('',#537,10.);
#169=VERTEX_POINT('',#550);
#170=VERTEX_POINT('',#551);
#171=VERTEX_POINT('',#553);
#172=VERTEX_POINT('',#555);
#173=VERTEX_POINT('',#559);
#174=VERTEX_POINT('',#561);
#175=VERTEX_POINT('',#565);
#176=VERTEX_POINT('',#567);
#177=VERTEX_POINT('',#574);
#178=VERTEX_POINT('',#575);
#179=VERTEX_POINT('',#577);
#180=VERTEX_POINT('',#579);
#181=VERTEX_POINT('',#583);
#182=VERTEX_POINT('',#584);
#183=VERTEX_POINT('',#586);
#184=VERTEX_POINT('',#588);
#185=VERTEX_POINT('',#592);
#186=VERTEX_POINT('',#594);
#187=VERTEX_POINT('',#598);
#188=VERTEX_POINT('',#600);
#189=VERTEX_POINT('',#604);
#190=VERTEX_POINT('',#606);
#191=VERTEX_POINT('',#610);
#192=VERTEX_POINT('',#612);
#193=VERTEX_POINT('',#623);
#194=VERTEX_POINT('',#624);
#195=VERTEX_POINT('',#626);
#196=VERTEX_POINT('',#628);
#197=VERTEX_POINT('',#632);
#198=VERTEX_POINT('',#634);
#199=VERTEX_POINT('',#638);
#200=VERTEX_POINT('',#640);
#201=VERTEX_POINT('',#644);
#202=VERTEX_POINT('',#646);
#203=VERTEX_POINT('',#650);
#204=VERTEX_POINT('',#652);
#205=EDGE_CURVE('',#169,#170,#69,.T.);
#206=EDGE_CURVE('',#170,#171,#70,.T.);
#207=EDGE_CURVE('',#172,#171,#71,.T.);
#208=EDGE_CURVE('',#169,#172,#72,.T.);
#209=EDGE_CURVE('',#173,#169,#73,.T.);
#210=EDGE_CURVE('',#174,#172,#74,.T.);
#211=EDGE_CURVE('',#173,#174,#75,.T.);
#212=EDGE_CURVE('',#175,#173,#76,.T.);
#213=EDGE_CURVE('',#176,#174,#77,.T.);
#214=EDGE_CURVE('',#175,#176,#78,.T.);
#215=EDGE_CURVE('',#170,#175,#79,.T.);
#216=EDGE_CURVE('',#171,#176,#80,.T.);
#217=EDGE_CURVE('',#177,#178,#81,.T.);
#218=EDGE_CURVE('',#178,#179,#82,.T.);
#219=EDGE_CURVE('',#180,#179,#83,.T.);
#220=EDGE_CURVE('',#177,#180,#84,.T.);
#221=EDGE_CURVE('',#181,#182,#85,.T.);
#222=EDGE_CURVE('',#181,#183,#86,.T.);
#223=EDGE_CURVE('',#184,#183,#87,.T.);
#224=EDGE_CURVE('',#182,#184,#88,.T.);
#225=EDGE_CURVE('',#178,#185,#89,.T.);
#226=EDGE_CURVE('',#185,#186,#90,.T.);
#227=EDGE_CURVE('',#179,#186,#91,.T.);
#228=EDGE_CURVE('',#177,#187,#92,.T.);
#229=EDGE_CURVE('',#188,#180,#93,.T.);
#230=EDGE_CURVE('',#187,#188,#94,.T.);
#231=EDGE_CURVE('',#187,#189,#95,.T.);
#232=EDGE_CURVE('',#190,#188,#96,.T.);
#233=EDGE_CURVE('',#189,#190,#97,.T.);
#234=EDGE_CURVE('',#189,#191,#98,.T.);
#235=EDGE_CURVE('',#192,#190,#99,.T.);
#236=EDGE_CURVE('',#191,#192,#100,.T.);
#237=EDGE_CURVE('',#191,#181,#101,.T.);
#238=EDGE_CURVE('',#183,#192,#102,.T.);
#239=EDGE_CURVE('',#185,#182,#103,.T.);
#240=EDGE_CURVE('',#186,#184,#104,.T.);
#241=EDGE_CURVE('',#193,#194,#105,.T.);
#242=EDGE_CURVE('',#194,#195,#106,.T.);
#243=EDGE_CURVE('',#196,#195,#107,.T.);
#244=EDGE_CURVE('',#193,#196,#108,.T.);
#245=EDGE_CURVE('',#197,#193,#18,.T.);
#246=EDGE_CURVE('',#198,#196,#19,.T.);
#247=EDGE_CURVE('',#197,#198,#109,.T.);
#248=EDGE_CURVE('',#199,#197,#110,.T.);
#249=EDGE_CURVE('',#200,#198,#111,.T.);
#250=EDGE_CURVE('',#199,#200,#112,.T.);
#251=EDGE_CURVE('',#201,#199,#113,.T.);
#252=EDGE_CURVE('',#202,#200,#114,.T.);
#253=EDGE_CURVE('',#201,#202,#115,.T.);
#254=EDGE_CURVE('',#203,#201,#116,.T.);
#255=EDGE_CURVE('',#204,#202,#117,.T.);
#256=EDGE_CURVE('',#203,#204,#118,.T.);
#257=EDGE_CURVE('',#194,#203,#20,.T.);
#258=EDGE_CURVE('',#195,#204,#21,.T.);
#259=ORIENTED_EDGE('',*,*,#205,.T.);
#260=ORIENTED_EDGE('',*,*,#206,.T.);
#261=ORIENTED_EDGE('',*,*,#207,.F.);
#262=ORIENTED_EDGE('',*,*,#208,.F.);
#263=ORIENTED_EDGE('',*,*,#209,.T.);
#264=ORIENTED_EDGE('',*,*,#208,.T.);
#265=ORIENTED_EDGE('',*,*,#210,.F.);
#266=ORIENTED_EDGE('',*,*,#211,.F.);
#267=ORIENTED_EDGE('',*,*,#212,.T.);
#268=ORIENTED_EDGE('',*,*,#211,.T.);
#269=ORIENTED_EDGE('',*,*,#213,.F.);
#270=ORIENTED_EDGE('',*,*,#214,.F.);
#271=ORIENTED_EDGE('',*,*,#215,.T.);
#272=ORIENTED_EDGE('',*,*,#214,.T.);
#273=ORIENTED_EDGE('',*,*,#216,.F.);
#274=ORIENTED_EDGE('',*,*,#206,.F.);
#275=ORIENTED_EDGE('',*,*,#217,.T.);
#276=ORIENTED_EDGE('',*,*,#218,.T.);
#277=ORIENTED_EDGE('',*,*,#219,.F.);
#278=ORIENTED_EDGE('',*,*,#220,.F.);
#279=ORIENTED_EDGE('',*,*,#221,.F.);
#280=ORIENTED_EDGE('',*,*,#222,.T.);
#281=ORIENTED_EDGE('',*,*,#223,.F.);
#282=ORIENTED_EDGE('',*,*,#224,.F.);
#283=ORIENTED_EDGE('',*,*,#225,.T.);
#284=ORIENTED_EDGE('',*,*,#226,.T.);
#285=ORIENTED_EDGE('',*,*,#227,.F.);
#286=ORIENTED_EDGE('',*,*,#218,.F.);
#287=ORIENTED_EDGE('',*,*,#228,.F.);
#288=ORIENTED_EDGE('',*,*,#220,.T.);
#289=ORIENTED_EDGE('',*,*,#229,.F.);
#290=ORIENTED_EDGE('',*,*,#230,.F.);
#291=ORIENTED_EDGE('',*,*,#231,.F.);
#292=ORIENTED_EDGE('',*,*,#230,.T.);
#293=ORIENTED_EDGE('',*,*,#232,.F.);
#294=ORIENTED_EDGE('',*,*,#233,.F.);
#295=ORIENTED_EDGE('',*,*,#234,.F.);
#296=ORIENTED_EDGE('',*,*,#233,.T.);
#297=ORIENTED_EDGE('',*,*,#235,.F.);
#298=ORIENTED_EDGE('',*,*,#236,.F.);
#299=ORIENTED_EDGE('',*,*,#237,.F.);
#300=ORIENTED_EDGE('',*,*,#236,.T.);
#301=ORIENTED_EDGE('',*,*,#238,.F.);
#302=ORIENTED_EDGE('',*,*,#222,.F.);
#303=ORIENTED_EDGE('',*,*,#239,.T.);
#304=ORIENTED_EDGE('',*,*,#224,.T.);
#305=ORIENTED_EDGE('',*,*,#240,.F.);
#306=ORIENTED_EDGE('',*,*,#226,.F.);
#307=ORIENTED_EDGE('',*,*,#240,.T.);
#308=ORIENTED_EDGE('',*,*,#223,.T.);
#309=ORIENTED_EDGE('',*,*,#238,.T.);
#310=ORIENTED_EDGE('',*,*,#235,.T.);
#311=ORIENTED_EDGE('',*,*,#232,.T.);
#312=ORIENTED_EDGE('',*,*,#229,.T.);
#313=ORIENTED_EDGE('',*,*,#219,.T.);
#314=ORIENTED_EDGE('',*,*,#227,.T.);
#315=ORIENTED_EDGE('',*,*,#241,.T.);
#316=ORIENTED_EDGE('',*,*,#242,.T.);
#317=ORIENTED_EDGE('',*,*,#243,.F.);
#318=ORIENTED_EDGE('',*,*,#244,.F.);
#319=ORIENTED_EDGE('',*,*,#245,.T.);
#320=ORIENTED_EDGE('',*,*,#244,.T.);
#321=ORIENTED_EDGE('',*,*,#246,.F.);
#322=ORIENTED_EDGE('',*,*,#247,.F.);
#323=ORIENTED_EDGE('',*,*,#248,.T.);
#324=ORIENTED_EDGE('',*,*,#247,.T.);
#325=ORIENTED_EDGE('',*,*,#249,.F.);
#326=ORIENTED_EDGE('',*,*,#250,.F.);
#327=ORIENTED_EDGE('',*,*,#251,.T.);
#328=ORIENTED_EDGE('',*,*,#250,.T.);
#329=ORIENTED_EDGE('',*,*,#252,.F.);
#330=ORIENTED_EDGE('',*,*,#253,.F.);
#331=ORIENTED_EDGE('',*,*,#254,.T.);
#332=ORIENTED_EDGE('',*,*,#253,.T.);
#333=ORIENTED_EDGE('',*,*,#255,.F.);
#334=ORIENTED_EDGE('',*,*,#256,.F.);
#335=ORIENTED_EDGE('',*,*,#257,.T.);
#336=ORIENTED_EDGE('',*,*,#256,.T.);
#337=ORIENTED_EDGE('',*,*,#258,.F.);
#338=ORIENTED_EDGE('',*,*,#242,.F.);
#339=ORIENTED_EDGE('',*,*,#258,.T.);
#340=ORIENTED_EDGE('',*,*,#255,.T.);
#341=ORIENTED_EDGE('',*,*,#252,.T.);
#342=ORIENTED_EDGE('',*,*,#249,.T.);
#343=ORIENTED_EDGE('',*,*,#246,.T.);
#344=ORIENTED_EDGE('',*,*,#243,.T.);
#345=ORIENTED_EDGE('',*,*,#216,.T.);
#346=ORIENTED_EDGE('',*,*,#213,.T.);
#347=ORIENTED_EDGE('',*,*,#210,.T.);
#348=ORIENTED_EDGE('',*,*,#207,.T.);
#349=ORIENTED_EDGE('',*,*,#231,.T.);
#350=ORIENTED_EDGE('',*,*,#234,.T.);
#351=ORIENTED_EDGE('',*,*,#237,.T.);
#352=ORIENTED_EDGE('',*,*,#221,.T.);
#353=ORIENTED_EDGE('',*,*,#239,.F.);
#354=ORIENTED_EDGE('',*,*,#225,.F.);
#355=ORIENTED_EDGE('',*,*,#217,.F.);
#356=ORIENTED_EDGE('',*,*,#228,.T.);
#357=ORIENTED_EDGE('',*,*,#257,.F.);
#358=ORIENTED_EDGE('',*,*,#241,.F.);
#359=ORIENTED_EDGE('',*,*,#245,.F.);
#360=ORIENTED_EDGE('',*,*,#248,.F.);
#361=ORIENTED_EDGE('',*,*,#251,.F.);
#362=ORIENTED_EDGE('',*,*,#254,.F.);
#363=ORIENTED_EDGE('',*,*,#215,.F.);
#364=ORIENTED_EDGE('',*,*,#205,.F.);
#365=ORIENTED_EDGE('',*,*,#209,.F.);
#366=ORIENTED_EDGE('',*,*,#212,.F.);
#367=PLANE('',#421);
#368=PLANE('',#422);
#369=PLANE('',#423);
#370=PLANE('',#424);
#371=PLANE('',#425);
#372=PLANE('',#426);
#373=PLANE('',#427);
#374=PLANE('',#428);
#375=PLANE('',#429);
#376=PLANE('',#430);
#377=PLANE('',#431);
#378=PLANE('',#432);
#379=PLANE('',#433);
#380=PLANE('',#434);
#381=PLANE('',#438);
#382=PLANE('',#439);
#383=PLANE('',#440);
#384=PLANE('',#444);
#385=PLANE('',#445);
#386=ADVANCED_FACE('',(#24),#367,.T.);
#387=ADVANCED_FACE('',(#25),#368,.T.);
#388=ADVANCED_FACE('',(#26),#369,.T.);
#389=ADVANCED_FACE('',(#27),#370,.T.);
#390=ADVANCED_FACE('',(#28),#371,.T.);
#391=ADVANCED_FACE('',(#29),#372,.T.);
#392=ADVANCED_FACE('',(#30),#373,.T.);
#393=ADVANCED_FACE('',(#31),#374,.T.);
#394=ADVANCED_FACE('',(#32),#375,.T.);
#395=ADVANCED_FACE('',(#33),#376,.T.);
#396=ADVANCED_FACE('',(#34),#377,.T.);
#397=ADVANCED_FACE('',(#35),#378,.T.);
#398=ADVANCED_FACE('',(#36),#379,.T.);
#399=ADVANCED_FACE('',(#37),#380,.T.);
#400=ADVANCED_FACE('',(#38),#22,.T.);
#401=ADVANCED_FACE('',(#39),#381,.T.);
#402=ADVANCED_FACE('',(#40),#382,.T.);
#403=ADVANCED_FACE('',(#41),#383,.T.);
#404=ADVANCED_FACE('',(#42),#23,.T.);
#405=ADVANCED_FACE('',(#43,#15,#16),#384,.T.);
#406=ADVANCED_FACE('',(#44,#17),#385,.F.);
#407=CLOSED_SHELL('',(#386,#387,#388,#389,#390,#391,#392,#393,#394,#395,
#396,#397,#398,#399,#400,#401,#402,#403,#404,#405,#406));
#408=DERIVED_UNIT_ELEMENT(#410,1.);
#409=DERIVED_UNIT_ELEMENT(#665,-3.);
#410=(
MASS_UNIT()
NAMED_UNIT(*)
SI_UNIT(.KILO.,.GRAM.)
);
#411=DERIVED_UNIT((#408,#409));
#412=MEASURE_REPRESENTATION_ITEM('density measure',
POSITIVE_RATIO_MEASURE(7850.),#411);
#413=PROPERTY_DEFINITION_REPRESENTATION(#418,#415);
#414=PROPERTY_DEFINITION_REPRESENTATION(#419,#416);
#415=REPRESENTATION('material name',(#417),#662);
#416=REPRESENTATION('density',(#412),#662);
#417=DESCRIPTIVE_REPRESENTATION_ITEM('Steel','Steel');
#418=PROPERTY_DEFINITION('material property','material name',#672);
#419=PROPERTY_DEFINITION('material property','density of part',#672);
#420=AXIS2_PLACEMENT_3D('',#548,#446,#447);
#421=AXIS2_PLACEMENT_3D('',#549,#448,#449);
#422=AXIS2_PLACEMENT_3D('',#558,#454,#455);
#423=AXIS2_PLACEMENT_3D('',#564,#459,#460);
#424=AXIS2_PLACEMENT_3D('',#570,#464,#465);
#425=AXIS2_PLACEMENT_3D('',#573,#468,#469);
#426=AXIS2_PLACEMENT_3D('',#582,#474,#475);
#427=AXIS2_PLACEMENT_3D('',#591,#480,#481);
#428=AXIS2_PLACEMENT_3D('',#597,#485,#486);
#429=AXIS2_PLACEMENT_3D('',#603,#490,#491);
#430=AXIS2_PLACEMENT_3D('',#609,#495,#496);
#431=AXIS2_PLACEMENT_3D('',#615,#500,#501);
#432=AXIS2_PLACEMENT_3D('',#618,#504,#505);
#433=AXIS2_PLACEMENT_3D('',#621,#508,#509);
#434=AXIS2_PLACEMENT_3D('',#622,#510,#511);
#435=AXIS2_PLACEMENT_3D('',#631,#516,#517);
#436=AXIS2_PLACEMENT_3D('',#633,#518,#519);
#437=AXIS2_PLACEMENT_3D('',#635,#520,#521);
#438=AXIS2_PLACEMENT_3D('',#637,#523,#524);
#439=AXIS2_PLACEMENT_3D('',#643,#528,#529);
#440=AXIS2_PLACEMENT_3D('',#649,#533,#534);
#441=AXIS2_PLACEMENT_3D('',#655,#538,#539);
#442=AXIS2_PLACEMENT_3D('',#656,#540,#541);
#443=AXIS2_PLACEMENT_3D('',#657,#542,#543);
#444=AXIS2_PLACEMENT_3D('',#658,#544,#545);
#445=AXIS2_PLACEMENT_3D('',#659,#546,#547);
#446=DIRECTION('axis',(0.,0.,1.));
#447=DIRECTION('refdir',(1.,0.,0.));
#448=DIRECTION('center_axis',(-1.,0.,-1.59592833154139E-16));
#449=DIRECTION('ref_axis',(1.59592833154139E-16,0.,-1.));
#450=DIRECTION('',(1.59592833154139E-16,0.,-1.));
#451=DIRECTION('',(0.,-1.,0.));
#452=DIRECTION('',(1.59592833154139E-16,0.,-1.));
#453=DIRECTION('',(0.,-1.,0.));
#454=DIRECTION('center_axis',(0.,0.,-1.));
#455=DIRECTION('ref_axis',(1.,0.,0.));
#456=DIRECTION('',(1.,0.,0.));
#457=DIRECTION('',(1.,0.,0.));
#458=DIRECTION('',(0.,-1.,0.));
#459=DIRECTION('center_axis',(1.,0.,0.));
#460=DIRECTION('ref_axis',(0.,0.,1.));
#461=DIRECTION('',(0.,0.,1.));
#462=DIRECTION('',(0.,0.,1.));
#463=DIRECTION('',(0.,-1.,0.));
#464=DIRECTION('center_axis',(0.,0.,1.));
#465=DIRECTION('ref_axis',(-1.,0.,0.));
#466=DIRECTION('',(-1.,0.,0.));
#467=DIRECTION('',(-1.,0.,0.));
#468=DIRECTION('center_axis',(1.,0.,0.));
#469=DIRECTION('ref_axis',(0.,0.,1.));
#470=DIRECTION('',(0.,0.,1.));
#471=DIRECTION('',(0.,-1.,0.));
#472=DIRECTION('',(0.,0.,1.));
#473=DIRECTION('',(0.,-1.,0.));
#474=DIRECTION('center_axis',(0.,0.,-1.));
#475=DIRECTION('ref_axis',(1.,0.,0.));
#476=DIRECTION('',(-1.,0.,0.));
#477=DIRECTION('',(0.,-1.,0.));
#478=DIRECTION('',(1.,0.,0.));
#479=DIRECTION('',(0.,-1.,0.));
#480=DIRECTION('center_axis',(0.,0.,-1.));
#481=DIRECTION('ref_axis',(1.,0.,0.));
#482=DIRECTION('',(1.,0.,0.));
#483=DIRECTION('',(0.,-1.,0.));
#484=DIRECTION('',(1.,0.,0.));
#485=DIRECTION('center_axis',(0.,0.,-1.));
#486=DIRECTION('ref_axis',(1.,0.,0.));
#487=DIRECTION('',(-1.,0.,0.));
#488=DIRECTION('',(1.,0.,0.));
#489=DIRECTION('',(0.,-1.,0.));
#490=DIRECTION('center_axis',(-1.,0.,0.));
#491=DIRECTION('ref_axis',(0.,0.,-1.));
#492=DIRECTION('',(0.,0.,1.));
#493=DIRECTION('',(0.,0.,-1.));
#494=DIRECTION('',(0.,-1.,0.));
#495=DIRECTION('center_axis',(7.40148683083438E-17,0.,1.));
#496=DIRECTION('ref_axis',(-1.,0.,7.40148683083438E-17));
#497=DIRECTION('',(1.,0.,-7.40148683083438E-17));
#498=DIRECTION('',(-1.,0.,7.40148683083438E-17));
#499=DIRECTION('',(0.,-1.,0.));
#500=DIRECTION('center_axis',(1.,0.,-1.11022302462516E-16));
#501=DIRECTION('ref_axis',(1.11022302462516E-16,0.,1.));
#502=DIRECTION('',(-1.11022302462516E-16,0.,-1.));
#503=DIRECTION('',(1.11022302462516E-16,0.,1.));
#504=DIRECTION('center_axis',(-1.,0.,0.));
#505=DIRECTION('ref_axis',(0.,0.,-1.));
#506=DIRECTION('',(0.,0.,-1.));
#507=DIRECTION('',(0.,0.,-1.));
#508=DIRECTION('center_axis',(0.,-1.,0.));
#509=DIRECTION('ref_axis',(0.,0.,-1.));
#510=DIRECTION('center_axis',(0.,0.,1.));
#511=DIRECTION('ref_axis',(-1.,0.,0.));
#512=DIRECTION('',(-1.,0.,0.));
#513=DIRECTION('',(0.,-1.,0.));
#514=DIRECTION('',(-1.,0.,0.));
#515=DIRECTION('',(0.,-1.,0.));
#516=DIRECTION('center_axis',(0.,-1.,0.));
#517=DIRECTION('ref_axis',(1.,0.,-1.77635683940025E-15));
#518=DIRECTION('center_axis',(0.,-1.,0.));
#519=DIRECTION('ref_axis',(1.,0.,-1.77635683940025E-15));
#520=DIRECTION('center_axis',(0.,-1.,0.));
#521=DIRECTION('ref_axis',(1.,0.,-1.77635683940025E-15));
#522=DIRECTION('',(0.,-1.,0.));
#523=DIRECTION('center_axis',(1.,0.,0.));
#524=DIRECTION('ref_axis',(0.,0.,1.));
#525=DIRECTION('',(0.,0.,1.));
#526=DIRECTION('',(0.,0.,1.));
#527=DIRECTION('',(0.,-1.,0.));
#528=DIRECTION('center_axis',(0.,0.,-1.));
#529=DIRECTION('ref_axis',(1.,0.,0.));
#530=DIRECTION('',(1.,0.,0.));
#531=DIRECTION('',(1.,0.,0.));
#532=DIRECTION('',(0.,-1.,0.));
#533=DIRECTION('center_axis',(-1.,0.,0.));
#534=DIRECTION('ref_axis',(0.,0.,-1.));
#535=DIRECTION('',(0.,0.,-1.));
#536=DIRECTION('',(0.,0.,-1.));
#537=DIRECTION('',(0.,-1.,0.));
#538=DIRECTION('center_axis',(0.,-1.,0.));
#539=DIRECTION('ref_axis',(1.77635683940025E-15,0.,1.));
#540=DIRECTION('center_axis',(0.,-1.,0.));
#541=DIRECTION('ref_axis',(1.77635683940025E-15,0.,1.));
#542=DIRECTION('center_axis',(0.,-1.,0.));
#543=DIRECTION('ref_axis',(1.77635683940025E-15,0.,1.));
#544=DIRECTION('center_axis',(0.,-1.,0.));
#545=DIRECTION('ref_axis',(1.,0.,0.));
#546=DIRECTION('center_axis',(0.,-1.,0.));
#547=DIRECTION('ref_axis',(1.,0.,0.));
#548=CARTESIAN_POINT('',(0.,0.,0.));
#549=CARTESIAN_POINT('Origin',(3.51975025485826,-60.,-15.8460340540694));
#550=CARTESIAN_POINT('',(3.51975025485826,-60.,-15.8460340540694));
#551=CARTESIAN_POINT('',(3.51975025485826,-60.,-19.3243325549579));
#552=CARTESIAN_POINT('',(3.51975025485826,-60.,-15.8460340540694));
#553=CARTESIAN_POINT('',(3.51975025485826,-62.,-19.3243325549579));
#554=CARTESIAN_POINT('',(3.51975025485826,-60.,-19.3243325549579));
#555=CARTESIAN_POINT('',(3.51975025485826,-62.,-15.8460340540694));
#556=CARTESIAN_POINT('',(3.51975025485826,-62.,-15.8460340540694));
#557=CARTESIAN_POINT('',(3.51975025485826,-60.,-15.8460340540694));
#558=CARTESIAN_POINT('Origin',(-5.49069919506225,-60.,-15.8460340540694));
#559=CARTESIAN_POINT('',(-5.49069919506225,-60.,-15.8460340540694));
#560=CARTESIAN_POINT('',(-5.49069919506225,-60.,-15.8460340540694));
#561=CARTESIAN_POINT('',(-5.49069919506225,-62.,-15.8460340540694));
#562=CARTESIAN_POINT('',(-5.49069919506225,-62.,-15.8460340540694));
#563=CARTESIAN_POINT('',(-5.49069919506225,-60.,-15.8460340540694));
#564=CARTESIAN_POINT('Origin',(-5.49069919506225,-60.,-19.3243325549579));
#565=CARTESIAN_POINT('',(-5.49069919506225,-60.,-19.3243325549579));
#566=CARTESIAN_POINT('',(-5.49069919506225,-60.,-19.3243325549579));
#567=CARTESIAN_POINT('',(-5.49069919506225,-62.,-19.3243325549579));
#568=CARTESIAN_POINT('',(-5.49069919506225,-62.,-19.3243325549579));
#569=CARTESIAN_POINT('',(-5.49069919506225,-60.,-19.3243325549579));
#570=CARTESIAN_POINT('Origin',(3.51975025485826,-60.,-19.3243325549579));
#571=CARTESIAN_POINT('',(3.51975025485826,-60.,-19.3243325549579));
#572=CARTESIAN_POINT('',(3.51975025485826,-62.,-19.3243325549579));
#573=CARTESIAN_POINT('Origin',(-28.0000004172325,-60.,-20.0000002980232));
#574=CARTESIAN_POINT('',(-28.0000004172325,-62.,-20.));
#575=CARTESIAN_POINT('',(-28.0000004172325,-62.,18.0000002682209));
#576=CARTESIAN_POINT('',(-28.0000004172325,-62.,-10.5000001564622));
#577=CARTESIAN_POINT('',(-28.0000004172325,-64.,18.0000002682209));
#578=CARTESIAN_POINT('',(-28.0000004172325,-60.,18.0000002682209));
#579=CARTESIAN_POINT('',(-28.0000004172325,-64.,-20.0000002980232));
#580=CARTESIAN_POINT('',(-28.0000004172325,-64.,-17.0000002533197));
#581=CARTESIAN_POINT('',(-28.0000004172325,-60.,-20.0000002980232));
#582=CARTESIAN_POINT('Origin',(28.0000004172325,-60.,-20.));
#583=CARTESIAN_POINT('',(30.,-62.,-20.));
#584=CARTESIAN_POINT('',(28.0000004172325,-62.,-20.0000002980232));
#585=CARTESIAN_POINT('',(-30.,-62.,-20.));
#586=CARTESIAN_POINT('',(30.,-64.,-20.));
#587=CARTESIAN_POINT('',(30.,-60.,-20.));
#588=CARTESIAN_POINT('',(28.0000004172325,-64.,-20.0000002980232));
#589=CARTESIAN_POINT('',(-30.,-64.,-20.));
#590=CARTESIAN_POINT('',(28.0000004172325,-60.,-20.0000002980232));
#591=CARTESIAN_POINT('Origin',(-28.0000004172325,-60.,18.0000002682209));
#592=CARTESIAN_POINT('',(28.0000004172325,-62.,18.0000002682209));
#593=CARTESIAN_POINT('',(-14.0000002086163,-62.,18.0000002682209));
#594=CARTESIAN_POINT('',(28.0000004172325,-64.,18.0000002682209));
#595=CARTESIAN_POINT('',(28.0000004172325,-60.,18.0000002682209));
#596=CARTESIAN_POINT('',(28.0000004172325,-64.,18.0000002682209));
#597=CARTESIAN_POINT('Origin',(-30.,-60.,-20.));
#598=CARTESIAN_POINT('',(-30.,-62.,-20.));
#599=CARTESIAN_POINT('',(-30.,-62.,-20.));
#600=CARTESIAN_POINT('',(-30.,-64.,-20.));
#601=CARTESIAN_POINT('',(-30.,-64.,-20.));
#602=CARTESIAN_POINT('',(-30.,-60.,-20.));
#603=CARTESIAN_POINT('Origin',(-30.,-60.,20.));
#604=CARTESIAN_POINT('',(-30.,-62.,20.));
#605=CARTESIAN_POINT('',(-30.,-62.,20.));
#606=CARTESIAN_POINT('',(-30.,-64.,20.));
#607=CARTESIAN_POINT('',(-30.,-64.,20.));
#608=CARTESIAN_POINT('',(-30.,-60.,20.));
#609=CARTESIAN_POINT('Origin',(30.,-60.,20.));
#610=CARTESIAN_POINT('',(30.,-62.,20.));
#611=CARTESIAN_POINT('',(30.,-62.,20.));
#612=CARTESIAN_POINT('',(30.,-64.,20.));
#613=CARTESIAN_POINT('',(30.,-64.,20.));
#614=CARTESIAN_POINT('',(30.,-60.,20.));
#615=CARTESIAN_POINT('Origin',(30.,-60.,-20.));
#616=CARTESIAN_POINT('',(30.,-62.,-20.));
#617=CARTESIAN_POINT('',(30.,-64.,-20.));
#618=CARTESIAN_POINT('Origin',(28.0000004172325,-60.,18.0000002682209));
#619=CARTESIAN_POINT('',(28.0000004172325,-62.,8.50000012665987));
#620=CARTESIAN_POINT('',(28.0000004172325,-64.,-17.0000002533197));
#621=CARTESIAN_POINT('Origin',(4.44089209850063E-15,-64.,-1.49011603056692E-7));
#622=CARTESIAN_POINT('Origin',(30.,-60.,25.000000372529));
#623=CARTESIAN_POINT('',(30.,-60.,25.000000372529));
#624=CARTESIAN_POINT('',(-30.,-60.,25.000000372529));
#625=CARTESIAN_POINT('',(35.0000005215406,-60.,25.000000372529));
#626=CARTESIAN_POINT('',(-30.,-62.,25.000000372529));
#627=CARTESIAN_POINT('',(-30.,-60.,25.000000372529));
#628=CARTESIAN_POINT('',(30.,-62.,25.000000372529));
#629=CARTESIAN_POINT('',(35.0000005215406,-62.,25.000000372529));
#630=CARTESIAN_POINT('',(30.,-60.,25.000000372529));
#631=CARTESIAN_POINT('Origin',(30.,-60.,20.));
#632=CARTESIAN_POINT('',(35.0000005215406,-60.,20.));
#633=CARTESIAN_POINT('Origin',(30.,-60.,20.));
#634=CARTESIAN_POINT('',(35.0000005215406,-62.,20.));
#635=CARTESIAN_POINT('Origin',(30.,-62.,20.));
#636=CARTESIAN_POINT('',(35.0000005215406,-60.,20.));
#637=CARTESIAN_POINT('Origin',(35.0000005215406,-60.,-25.));
#638=CARTESIAN_POINT('',(35.0000005215406,-60.,-25.));
#639=CARTESIAN_POINT('',(35.0000005215406,-60.,-25.));
#640=CARTESIAN_POINT('',(35.0000005215406,-62.,-25.));
#641=CARTESIAN_POINT('',(35.0000005215406,-62.,-25.));
#642=CARTESIAN_POINT('',(35.0000005215406,-60.,-25.));
#643=CARTESIAN_POINT('Origin',(-35.,-60.,-25.));
#644=CARTESIAN_POINT('',(-35.,-60.,-25.));
#645=CARTESIAN_POINT('',(-35.,-60.,-25.));
#646=CARTESIAN_POINT('',(-35.,-62.,-25.));
#647=CARTESIAN_POINT('',(-35.,-62.,-25.));
#648=CARTESIAN_POINT('',(-35.,-60.,-25.));
#649=CARTESIAN_POINT('Origin',(-35.,-60.,20.));
#650=CARTESIAN_POINT('',(-35.,-60.,20.));
#651=CARTESIAN_POINT('',(-35.,-60.,25.000000372529));
#652=CARTESIAN_POINT('',(-35.,-62.,20.));
#653=CARTESIAN_POINT('',(-35.,-62.,25.000000372529));
#654=CARTESIAN_POINT('',(-35.,-60.,20.));
#655=CARTESIAN_POINT('Origin',(-30.,-60.,20.));
#656=CARTESIAN_POINT('Origin',(-30.,-60.,20.));
#657=CARTESIAN_POINT('Origin',(-30.,-62.,20.));
#658=CARTESIAN_POINT('Origin',(2.60770325333226E-7,-62.,1.86264514923096E-7));
#659=CARTESIAN_POINT('Origin',(2.60770325333226E-7,-60.,1.86264514923096E-7));
#660=UNCERTAINTY_MEASURE_WITH_UNIT(LENGTH_MEASURE(0.01),#664,
'DISTANCE_ACCURACY_VALUE',
'Maximum model space distance between geometric entities at asserted c
onnectivities');
#661=UNCERTAINTY_MEASURE_WITH_UNIT(LENGTH_MEASURE(0.01),#664,
'DISTANCE_ACCURACY_VALUE',
'Maximum model space distance between geometric entities at asserted c
onnectivities');
#662=(
GEOMETRIC_REPRESENTATION_CONTEXT(3)
GLOBAL_UNCERTAINTY_ASSIGNED_CONTEXT((#660))
GLOBAL_UNIT_ASSIGNED_CONTEXT((#664,#666,#667))
REPRESENTATION_CONTEXT('','3D')
);
#663=(
GEOMETRIC_REPRESENTATION_CONTEXT(3)
GLOBAL_UNCERTAINTY_ASSIGNED_CONTEXT((#661))
GLOBAL_UNIT_ASSIGNED_CONTEXT((#664,#666,#667))
REPRESENTATION_CONTEXT('','3D')
);
#664=(
LENGTH_UNIT()
NAMED_UNIT(*)
SI_UNIT(.MILLI.,.METRE.)
);
#665=(
LENGTH_UNIT()
NAMED_UNIT(*)
SI_UNIT($,.METRE.)
);
#666=(
NAMED_UNIT(*)
PLANE_ANGLE_UNIT()
SI_UNIT($,.RADIAN.)
);
#667=(
NAMED_UNIT(*)
SI_UNIT($,.STERADIAN.)
SOLID_ANGLE_UNIT()
);
#668=SHAPE_DEFINITION_REPRESENTATION(#669,#670);
#669=PRODUCT_DEFINITION_SHAPE('',$,#672);
#670=SHAPE_REPRESENTATION('',(#420),#662);
#671=PRODUCT_DEFINITION_CONTEXT('part definition',#676,'design');
#672=PRODUCT_DEFINITION('2026-05-29-20-54-04-818','FusionComponent',#673,
#671);
#673=PRODUCT_DEFINITION_FORMATION('',$,#678);
#674=PRODUCT_RELATED_PRODUCT_CATEGORY('FusionComponent',
'FusionComponent',(#678));
#675=APPLICATION_PROTOCOL_DEFINITION('international standard',
'automotive_design',2009,#676);
#676=APPLICATION_CONTEXT(
'Core Data for Automotive Mechanical Design Process');
#677=PRODUCT_CONTEXT('part definition',#676,'mechanical');
#678=PRODUCT('2026-05-29-20-54-04-818','FusionComponent',$,(#677));
#679=PRESENTATION_STYLE_ASSIGNMENT((#680));
#680=SURFACE_STYLE_USAGE(.BOTH.,#681);
#681=SURFACE_SIDE_STYLE('',(#682));
#682=SURFACE_STYLE_FILL_AREA(#683);
#683=FILL_AREA_STYLE('Steel - Satin',(#684));
#684=FILL_AREA_STYLE_COLOUR('Steel - Satin',#685);
#685=COLOUR_RGB('Steel - Satin',0.627450980392157,0.627450980392157,0.627450980392157);
ENDSEC;
END-ISO-10303-21;
